<svg width="256" height="34" viewBox="0 0 256 34" fill="none" xmlns="http://www.w3.org/2000/svg">
<path d="M51.9101 21.9585L56.019 12.0391H57.5753L61.6842 21.9585H60.0587L58.9934 19.3368H54.6009L53.5356 21.9585H51.9101ZM56.8006 13.8099L55.1681 17.9188H58.4262L56.8006 13.8099ZM64.3129 19.1224V21.9585H62.8948V15.1588H64.3129V17.8496H67.6401V15.1588H69.0581V21.9585H67.6401V19.1224H64.3129ZM76.501 21.9585H75.0829V21.2529C75.0645 21.2713 75.0326 21.3014 74.9866 21.3429C74.9448 21.3844 74.857 21.4535 74.7231 21.5504C74.5942 21.6426 74.4539 21.7279 74.3016 21.8063C74.1494 21.8801 73.9581 21.9469 73.7272 22.0069C73.497 22.0669 73.2639 22.0968 73.0288 22.0968C72.3367 22.0968 71.763 21.8962 71.3062 21.495C70.8497 21.0938 70.6214 20.635 70.6214 20.1185C70.6214 19.5605 70.7967 19.0924 71.1472 18.7143C71.5023 18.3361 71.9861 18.0963 72.5995 17.9949L75.0829 17.566C75.0829 17.2063 74.9491 16.9043 74.682 16.6598C74.4192 16.4154 74.0799 16.2932 73.6649 16.2932C73.305 16.2932 72.9778 16.3693 72.6831 16.5215C72.392 16.6691 72.1915 16.8189 72.081 16.9711L71.894 17.2132L70.9742 16.2932C71.0019 16.2563 71.0388 16.2102 71.0849 16.1548C71.1356 16.0949 71.244 15.9935 71.41 15.8505C71.5809 15.7029 71.7601 15.5715 71.9493 15.4562C72.1384 15.341 72.3877 15.2395 72.6966 15.1518C73.0104 15.0596 73.3334 15.0135 73.6649 15.0135C74.495 15.0135 75.175 15.2602 75.7056 15.7536C76.2361 16.2425 76.501 16.8466 76.501 17.566V21.9585ZM73.2434 20.824C73.8193 20.824 74.2691 20.6535 74.5921 20.3122C74.9193 19.9663 75.0829 19.4751 75.0829 18.8388V18.7004L72.8836 19.0532C72.63 19.0993 72.4246 19.2031 72.268 19.3645C72.1108 19.5259 72.0329 19.7288 72.0329 19.9732C72.0329 20.1992 72.1412 20.3975 72.358 20.5681C72.579 20.7387 72.8744 20.824 73.2434 20.824ZM79.2678 15.1588H84.5116V21.9585H83.0935V16.4316H80.6859V17.144C80.6859 18.4399 80.5824 19.4637 80.3749 20.2154C80.1716 20.9624 79.9088 21.4627 79.5865 21.7164C79.2678 21.97 78.8555 22.0968 78.3484 22.0968C78.2237 22.0968 78.0898 22.0853 77.9467 22.0623C77.8086 22.0392 77.7002 22.0138 77.6216 21.9862L77.4969 21.9585V20.6096C77.6861 20.6557 77.8497 20.6811 77.9885 20.6857C78.2789 20.6857 78.507 20.6073 78.6735 20.4505C78.8435 20.2937 78.9844 19.9479 79.0949 19.4129C79.2104 18.8733 79.2678 18.1171 79.2678 17.144V15.1588ZM91.4561 15.1588H92.7289V21.9585H91.3108V17.4968L87.7692 21.9585H86.497V15.1588H87.9144V19.6204L91.4561 15.1588ZM94.0089 16.4316V15.1588H100.096V16.4316H97.7581V21.9585H96.3471V16.4316H94.0089ZM106.329 15.1588H107.601V21.9585H106.183V17.4968L102.641 21.9585H101.369V15.1588H102.787V19.6204L106.329 15.1588ZM113.841 21.9585V19.406C113.37 19.738 112.803 19.904 112.139 19.904C111.318 19.904 110.663 19.6573 110.174 19.1639C109.691 18.6659 109.448 17.9925 109.448 17.144V15.1588H110.859V17.144C110.859 17.5683 110.995 17.9234 111.267 18.2093C111.544 18.4906 111.881 18.6312 112.278 18.6312C112.568 18.6312 112.843 18.5851 113.101 18.4929C113.363 18.3961 113.553 18.2992 113.668 18.2024L113.841 18.0641V15.1588H115.252V21.9585H113.841ZM123.539 19.0532H118.226C118.3 19.5328 118.536 19.9479 118.932 20.2983C119.333 20.6488 119.809 20.824 120.357 20.824C120.753 20.824 121.122 20.7341 121.464 20.5543C121.81 20.3744 122.054 20.1992 122.197 20.0286L122.412 19.7657L123.331 20.6857C123.303 20.7226 123.26 20.7756 123.2 20.8448C123.145 20.9094 123.022 21.0224 122.833 21.1837C122.644 21.3405 122.444 21.4812 122.232 21.6057C122.019 21.7256 121.743 21.8386 121.402 21.9447C121.065 22.0461 120.717 22.0968 120.357 22.0968C119.393 22.0968 118.56 21.7441 117.86 21.0385C117.164 20.3283 116.815 19.4775 116.815 18.486C116.815 17.5314 117.154 16.7152 117.832 16.0373C118.514 15.3548 119.331 15.0135 120.281 15.0135C121.235 15.0135 122.028 15.3317 122.66 15.9681C123.297 16.5999 123.615 17.3931 123.615 18.3476L123.539 19.0532ZM120.281 16.224C119.769 16.224 119.337 16.3762 118.988 16.6806C118.641 16.9803 118.409 17.37 118.288 17.8496H122.225C122.142 17.37 121.927 16.9803 121.581 16.6806C121.235 16.3762 120.802 16.224 120.281 16.224ZM125.794 21.0454C125.093 20.3398 124.743 19.512 124.743 18.5621C124.743 17.6075 125.093 16.7774 125.794 16.0719C126.499 15.3663 127.33 15.0135 128.284 15.0135C128.814 15.0135 129.308 15.1288 129.764 15.3594C130.221 15.5853 130.548 15.8113 130.747 16.0373L131.044 16.3624L130.124 17.2824C130.078 17.2086 130.006 17.1187 129.91 17.0126C129.817 16.9019 129.613 16.7544 129.294 16.5699C128.981 16.3855 128.644 16.2932 128.284 16.2932C127.708 16.2932 127.207 16.5123 126.783 16.9504C126.363 17.3885 126.154 17.9257 126.154 18.5621C126.154 19.1939 126.363 19.7288 126.783 20.1669C127.207 20.605 127.708 20.824 128.284 20.824C128.644 20.824 128.981 20.7341 129.294 20.5543C129.613 20.3744 129.841 20.1992 129.979 20.0286L130.193 19.7657L131.114 20.6857C131.086 20.7226 131.044 20.7756 130.989 20.8448C130.934 20.9094 130.814 21.0224 130.629 21.1837C130.445 21.3405 130.251 21.4812 130.048 21.6057C129.845 21.7256 129.582 21.8386 129.26 21.9447C128.937 22.0461 128.612 22.0968 128.284 22.0968C127.33 22.0968 126.499 21.7463 125.794 21.0454ZM138.55 15.1588L135.928 17.9949L138.757 21.9585H137.201L135.008 18.9149L133.943 20.0493V21.9585H132.525V15.1588H133.943V18.2024L136.847 15.1588H138.55ZM144.845 15.1588H146.117V21.9585H144.699V17.4968L141.157 21.9585H139.885V15.1588H141.303V19.6204L144.845 15.1588ZM153.062 15.1588H154.335V21.9585H152.917V17.4968L149.375 21.9585H148.102V15.1588H149.52V19.6204L153.062 15.1588ZM150.51 12.7516C150.699 12.9406 150.934 13.0351 151.215 13.0351C151.501 13.0351 151.739 12.9406 151.928 12.7516C152.116 12.5625 152.211 12.3249 152.211 12.0391H153.277C153.277 12.6063 153.082 13.079 152.696 13.4571C152.308 13.8353 151.817 14.0243 151.222 14.0243C150.627 14.0243 150.136 13.8353 149.748 13.4571C149.362 13.079 149.168 12.6063 149.168 12.0391H150.226C150.226 12.3203 150.321 12.5578 150.51 12.7516ZM159.156 21.9585V15.1588H160.575V20.6857H163.763V15.1588H165.181V20.6857H166.17V23.6601H164.752V21.9585H159.156ZM173.883 19.0532H168.571C168.645 19.5328 168.88 19.9479 169.276 20.2983C169.677 20.6488 170.153 20.824 170.701 20.824C171.098 20.824 171.467 20.7341 171.808 20.5543C172.154 20.3744 172.398 20.1992 172.541 20.0286L172.756 19.7657L173.676 20.6857C173.648 20.7226 173.604 20.7756 173.544 20.8448C173.489 20.9094 173.366 21.0224 173.178 21.1837C172.989 21.3405 172.788 21.4812 172.576 21.6057C172.363 21.7256 172.087 21.8386 171.746 21.9447C171.409 22.0461 171.061 22.0968 170.701 22.0968C169.738 22.0968 168.905 21.7441 168.204 21.0385C167.508 20.3283 167.159 19.4775 167.159 18.486C167.159 17.5314 167.498 16.7152 168.176 16.0373C168.859 15.3548 169.675 15.0135 170.625 15.0135C171.58 15.0135 172.373 15.3317 173.004 15.9681C173.641 16.5999 173.959 17.3931 173.959 18.3476L173.883 19.0532ZM170.625 16.224C170.113 16.224 169.682 16.3762 169.332 16.6806C168.986 16.9803 168.753 17.37 168.633 17.8496H172.569C172.486 17.37 172.271 16.9803 171.926 16.6806C171.58 16.3762 171.146 16.224 170.625 16.224ZM176.927 19.1224V21.9585H175.509V15.1588H176.927V17.8496H180.254V15.1588H181.672V21.9585H180.254V19.1224H176.927ZM182.951 16.4316V15.1588H189.039V16.4316H186.701V21.9585H185.29V16.4316H182.951ZM193.923 22.0968C193.669 22.0968 193.422 22.0669 193.183 22.0069C192.943 21.9469 192.737 21.8732 192.567 21.7856C192.396 21.6934 192.244 21.6011 192.11 21.5088C191.981 21.412 191.886 21.3359 191.827 21.2806L191.73 21.1768V24.9329H190.312V15.1588H191.73V15.9404C191.794 15.8759 191.884 15.7905 192 15.6845C192.119 15.5784 192.371 15.4401 192.753 15.2694C193.137 15.0989 193.526 15.0135 193.923 15.0135C194.822 15.0135 195.601 15.3594 196.26 16.0511C196.925 16.7382 197.257 17.5729 197.257 18.5552C197.257 19.5374 196.925 20.3744 196.26 21.0661C195.601 21.7533 194.822 22.0968 193.923 22.0968ZM195.216 16.9573C194.801 16.5146 194.324 16.2932 193.784 16.2932C193.245 16.2932 192.768 16.5146 192.352 16.9573C191.937 17.4 191.73 17.9349 191.73 18.5621C191.73 19.1847 191.937 19.7173 192.352 20.16C192.768 20.6027 193.245 20.824 193.784 20.824C194.324 20.824 194.801 20.6027 195.216 20.16C195.631 19.7173 195.839 19.1847 195.839 18.5621C195.839 17.9349 195.631 17.4 195.216 16.9573ZM207.308 16.8604L211.133 12.0391H212.482V21.9585H210.926V14.7368L207.308 19.2677L203.697 14.7368V21.9585H202.14V12.0391H203.483L207.308 16.8604ZM219.427 20.1669C219.846 19.7288 220.056 19.1939 220.056 18.5621C220.056 17.9257 219.846 17.3885 219.427 16.9504C219.007 16.5123 218.509 16.2932 217.933 16.2932C217.356 16.2932 216.856 16.5123 216.432 16.9504C216.012 17.3885 215.802 17.9257 215.802 18.5621C215.802 19.1939 216.012 19.7288 216.432 20.1669C216.856 20.605 217.356 20.824 217.933 20.824C218.509 20.824 219.007 20.605 219.427 20.1669ZM215.443 21.0454C214.741 20.3398 214.391 19.512 214.391 18.5621C214.391 17.6075 214.741 16.7774 215.443 16.0719C216.148 15.3663 216.978 15.0135 217.933 15.0135C218.887 15.0135 219.715 15.3663 220.416 16.0719C221.121 16.7774 221.474 17.6075 221.474 18.5621C221.474 19.512 221.121 20.3398 220.416 21.0454C219.715 21.7463 218.887 22.0968 217.933 22.0968C216.978 22.0968 216.148 21.7463 215.443 21.0454ZM223.66 21.0454C222.96 20.3398 222.609 19.512 222.609 18.5621C222.609 17.6075 222.96 16.7774 223.66 16.0719C224.366 15.3663 225.196 15.0135 226.151 15.0135C226.68 15.0135 227.174 15.1288 227.631 15.3594C228.087 15.5853 228.414 15.8113 228.613 16.0373L228.91 16.3624L227.99 17.2824C227.944 17.2086 227.873 17.1187 227.776 17.0126C227.683 16.9019 227.479 16.7544 227.16 16.5699C226.847 16.3855 226.51 16.2932 226.151 16.2932C225.574 16.2932 225.074 16.5123 224.65 16.9504C224.23 17.3885 224.02 17.9257 224.02 18.5621C224.02 19.1939 224.23 19.7288 224.65 20.1669C225.074 20.605 225.574 20.824 226.151 20.824C226.51 20.824 226.847 20.7341 227.16 20.5543C227.479 20.3744 227.707 20.1992 227.845 20.0286L228.06 19.7657L228.98 20.6857C228.952 20.7226 228.91 20.7756 228.855 20.8448C228.8 20.9094 228.68 21.0224 228.495 21.1837C228.311 21.3405 228.117 21.4812 227.914 21.6057C227.711 21.7256 227.448 21.8386 227.126 21.9447C226.803 22.0461 226.478 22.0968 226.151 22.0968C225.196 22.0968 224.366 21.7463 223.66 21.0454ZM236.416 15.1588L233.794 17.9949L236.623 21.9585H235.067L232.874 18.9149L231.809 20.0493V21.9585H230.391V15.1588H231.809V18.2024L234.714 15.1588H236.416ZM237.751 15.1588H241.009C241.659 15.1588 242.175 15.3271 242.558 15.6637C242.941 15.9957 243.132 16.4177 243.132 16.9296C243.132 17.2201 243.068 17.4853 242.939 17.7251C242.814 17.9603 242.685 18.124 242.551 18.2162L242.358 18.3476C242.386 18.3569 242.425 18.373 242.476 18.3961C242.526 18.4192 242.618 18.4791 242.752 18.5759C242.886 18.6681 243.001 18.7719 243.097 18.8872C243.199 18.9979 243.289 19.1501 243.367 19.3438C243.451 19.5374 243.492 19.7473 243.492 19.9732C243.492 20.5589 243.282 21.0362 242.862 21.4051C242.448 21.774 241.878 21.9585 241.154 21.9585H237.751V15.1588ZM241.154 18.9149H239.169V20.7549H241.154C241.435 20.7549 241.659 20.6719 241.825 20.5058C241.991 20.3398 242.074 20.1162 242.074 19.8349C242.074 19.5813 241.989 19.3645 241.818 19.1847C241.648 19.0048 241.426 18.9149 241.154 18.9149ZM241.528 17.5937C241.657 17.4645 241.721 17.2916 241.721 17.0749C241.721 16.8535 241.657 16.6806 241.528 16.556C241.398 16.427 241.225 16.3624 241.009 16.3624H239.169V17.7805H241.009C241.225 17.7805 241.398 17.7182 241.528 17.5937ZM246.46 20.7549H247.947C248.27 20.7549 248.54 20.6465 248.756 20.4298C248.973 20.213 249.081 19.9432 249.081 19.6204C249.081 19.2976 248.973 19.0278 248.756 18.8111C248.54 18.5944 248.27 18.486 247.947 18.486H246.46V20.7549ZM249.794 17.9464C250.264 18.3845 250.5 18.9448 250.5 19.6274C250.5 20.3052 250.264 20.8633 249.794 21.3014C249.328 21.7395 248.712 21.9585 247.947 21.9585H245.042V15.1588H246.46V17.2824H247.947C248.712 17.2824 249.328 17.5037 249.794 17.9464ZM252.906 15.1588V21.9585H251.488V15.1588H252.906Z" fill="white"/>
<path d="M0.626465 6.51038C0.626465 2.9152 3.42235 0 6.87138 0H28.3816C31.8306 0 34.6265 2.91494 34.6265 6.51038V27.4894C34.6265 31.0851 31.8306 34 28.3816 34H6.87138C3.42235 34 0.626465 31.0851 0.626465 27.4894V6.51063V6.51038Z" fill="white"/>
<path fill-rule="evenodd" clip-rule="evenodd" d="M31.5919 4.20176C31.9308 4.40211 32.1776 4.73114 32.2779 5.11648C32.3783 5.50183 32.324 5.91193 32.127 6.25658L21.7265 24.4488L18.1858 19.8652L14.0359 26.8965L10.4166 22.2121L6.15301 28.3723C6.0421 28.5357 5.90045 28.6752 5.73623 28.7826C5.57201 28.8901 5.38849 28.9634 5.19626 28.9983C5.00403 29.0332 4.8069 29.029 4.61626 28.986C4.42562 28.943 4.24525 28.8621 4.08556 28.7478C3.92586 28.6335 3.79002 28.4882 3.68587 28.3202C3.58172 28.1523 3.51134 27.965 3.47877 27.7692C3.44621 27.5734 3.45211 27.373 3.49614 27.1796C3.54017 26.9861 3.62146 26.8035 3.73531 26.6422L10.2865 17.1768L13.7092 21.6075L17.8591 14.5761L21.3601 19.1076L29.5709 4.74565C29.6685 4.575 29.7981 4.42556 29.9525 4.30587C30.1069 4.18618 30.283 4.09858 30.4706 4.04808C30.6583 3.99757 30.8539 3.98515 31.0463 4.01152C31.2386 4.03789 31.4241 4.10253 31.5919 4.20176Z" fill="#1A2983"/>
</svg>
